<svg width="375" height="501" viewBox="0 0 375 501" fill="none" xmlns="http://www.w3.org/2000/svg">
<path fill-rule="evenodd" clip-rule="evenodd" fill="red" d="M345.5 288.5C364.173 259.349 375 224.689 375 187.5C375 83.9466 291.053 0 187.5 0C83.9466 0 0 83.9466 0 187.5C0 224.689 10.8267 259.349 29.5001 288.5H29L33.8247 294.953C36.0514 298.132 38.3741 301.238 40.7888 304.268L187.5 500.5L334.211 304.268C336.626 301.238 338.949 298.132 341.175 294.953L346 288.5H345.5ZM133 155C133 181.51 111.51 203 85 203C58.4903 203 37 181.51 37 155C37 128.49 58.4903 107 85 107C111.51 107 133 128.49 133 155ZM250 322C276.51 322 298 300.51 298 274C298 247.49 276.51 226 250 226C223.49 226 202 247.49 202 274C202 300.51 223.49 322 250 322ZM336 155C336 181.51 314.51 203 288 203C261.49 203 240 181.51 240 155C240 128.49 261.49 107 288 107C314.51 107 336 128.49 336 155ZM187 128C213.51 128 235 106.51 235 80C235 53.4903 213.51 32 187 32C160.49 32 139 53.4903 139 80C139 106.51 160.49 128 187 128ZM171 274C171 300.51 149.51 322 123 322C96.4903 322 75 300.51 75 274C75 247.49 96.4903 226 123 226C149.51 226 171 247.49 171 274ZM186.5 203C195.06 203 202 196.06 202 187.5C202 178.94 195.06 172 186.5 172C177.94 172 171 178.94 171 187.5C171 196.06 177.94 203 186.5 203Z"/>
</svg>