<?xml version="1.0" encoding="iso-8859-1"?>
<!-- Generator: Adobe Illustrator 16.0.0, SVG Export Plug-In . SVG Version: 6.00 Build 0)  -->
<!DOCTYPE svg PUBLIC "-//W3C//DTD SVG 1.1//EN" "http://www.w3.org/Graphics/SVG/1.1/DTD/svg11.dtd">
<svg version="1.1" id="Capa_1" xmlns="http://www.w3.org/2000/svg" xmlns:xlink="http://www.w3.org/1999/xlink" x="0px" y="0px"
	 width="73.023px" height="73.023px" viewBox="0 0 73.023 73.023" style="enable-background:new 0 0 73.023 73.023;"
	 xml:space="preserve">
<g>
	<path fill="white" d="M43.233,38.083c-5.824,3.358-13.441,1.344-16.802-4.481c-3.358-5.824-1.344-13.439,4.48-16.801
		c5.824-3.359,13.438-1.345,16.8,4.479C51.073,27.105,49.056,34.721,43.233,38.083z M58.241,50.4c0,0,3.584,5.824-2.466,9.406
		c-0.896,0.672-2.239,0.896-3.358,0.896c-2.016,0-3.809-0.895-5.152-2.238c-5.6,8.289-10.752,14.559-10.752,14.559
		S10.304,40.768,10.304,26.208C10.304,11.872,21.952,0,36.512,0C51.073,0,62.72,11.873,62.72,26.208
		c0,4.929-3.137,12.097-7.168,19.265l1.344,2.465L58.241,50.4z M45.472,41.889c7.84-4.703,10.752-14.784,6.048-22.849
		c-4.702-7.84-14.783-10.751-22.848-6.048c-7.84,4.703-10.752,14.784-6.048,22.849C27.329,43.68,37.409,46.593,45.472,41.889z
		 M47.936,54.432l7.168-4.031l-5.601-9.633l-7.168,4.256L47.936,54.432z M56.001,51.52l-7.168,4.256
		c1.119,2.017,3.584,2.689,5.6,1.568C56.448,56.225,57.12,53.761,56.001,51.52z"/>
</g>
<g>
</g>
<g>
</g>
<g>
</g>
<g>
</g>
<g>
</g>
<g>
</g>
<g>
</g>
<g>
</g>
<g>
</g>
<g>
</g>
<g>
</g>
<g>
</g>
<g>
</g>
<g>
</g>
<g>
</g>
</svg>
